<svg height="512pt" viewBox="-53 0 511 512" width="512pt" xmlns="http://www.w3.org/2000/svg"><path d="m406.574219 411.453125c.011719 39.527344-27.890625 73.558594-66.648438 81.304687-5.347656 1.066407-10.789062 1.601563-16.242187 1.585938h-240.289063c-5.453125.015625-10.894531-.519531-16.242187-1.585938-40.457032-8.101562-68.808594-44.710937-66.523438-85.90625 2.285156-41.199218 34.511719-74.449218 75.617188-78.023437l70.972656-6.179687h112.640625l70.972656 6.179687c42.847657 3.746094 75.730469 39.613281 75.742188 82.625zm0 0" fill="#9fc9d3"/><path d="m353.609375 432.550781v26.484375c-.089844 12.574219-4.984375 24.640625-13.683594 33.722656-5.347656 1.066407-10.789062 1.601563-16.242187 1.585938h-240.289063c-5.453125.015625-10.894531-.519531-16.242187-1.585938-8.699219-9.082031-13.59375-21.148437-13.683594-33.722656v-26.484375c.03125-9.738281 7.917969-17.625 17.65625-17.652343h264.828125c9.738281.027343 17.625 7.914062 17.65625 17.652343zm0 0" fill="#84b5cb"/><path d="m335.953125 397.242188v61.792968c0 29.25-23.714844 52.964844-52.964844 52.964844h-158.898437c-29.25 0-52.964844-23.714844-52.964844-52.964844v-61.792968" fill="#9fc9d3"/><path d="m265.332031 512h-8.828125c-29.25 0-52.964844-23.714844-52.964844-52.964844 0 29.25-23.714843 52.964844-52.964843 52.964844zm0 0" fill="#84b5cb"/><path d="m203.539062 0c52.964844 0 97.101563 8.828125 114.757813 61.792969 17.65625 52.964843 8.828125 167.722656 26.484375 203.035156 26.480469 52.964844-44.140625 52.964844-35.3125 97.101563 8.828125 44.140624-52.964844 52.96875-88.273438 26.484374-35.3125-26.484374-97.105468-26.484374-114.761718-52.964843-17.652344-26.484375-61.792969-35.3125-44.136719-70.621094 17.65625-35.3125 8.828125-150.070313 26.484375-203.035156 17.652344-52.964844 61.792969-61.792969 114.757812-61.792969" fill="#3b97d3"/><path d="m221.8125 286.984375c-6.785156 3.289063-13.84375 5.976563-21.097656 8.035156-.53125-.355469-1.148438-.621093-1.679688-.972656-34.25-20.214844-70.53125-42.371094-74.945312-73.355469-5.296875-37.253906-13.859375-64.972656-12.003906-88.71875.679687-11.269531 4.371093-22.152344 10.679687-31.515625 26.21875-7.828125 53.410156-11.929687 80.773437-12.179687 28.539063.269531 56.882813 4.730468 84.125 13.238281 1.871094 4.246094 3.265626 8.6875 4.152344 13.242187 1.359375 6.941407 2.304688 13.957032 2.824219 21.011719 3.265625 45.019531-6.09375 119.523438-72.828125 151.214844zm0 0" fill="#9fc9d3"/><g fill="#2980ba"><path d="m264.890625 334.210938c-1.875 1.417968-4.242187 2.019531-6.570313 1.671874-2.324218-.351562-4.410156-1.621093-5.789062-3.523437-2.300781-3.050781-4.9375-5.832031-7.855469-8.296875-13.675781-10.839844-28.265625-20.46875-43.609375-28.78125l-.351562-.261719c7.253906-2.058593 14.3125-4.746093 21.097656-8.035156 12.175781 6.890625 23.726562 14.835937 34.515625 23.746094 3.84375 3.339843 7.335937 7.066406 10.417969 11.125 2.886718 3.925781 2.058594 9.449219-1.855469 12.355469zm0 0"/><path d="m287.664062 101.515625c-27.242187-8.507813-55.585937-12.96875-84.125-13.238281-27.363281.25-54.554687 4.351562-80.773437 12.179687 2.984375-4.375 6.386719-8.457031 10.152344-12.179687 17.65625-17.65625 52.964843-44.140625 70.621093-44.140625 23.746094 0 68.679688 21.1875 84.125 57.378906zm0 0"/><path d="m177.054688 335.453125c-1.121094-.003906-2.230469-.21875-3.273438-.632813-29.070312-12.132812-54.648438-31.335937-74.40625-55.867187-2.929688-3.898437-2.144531-9.433594 1.753906-12.363281 3.898438-2.925782 9.433594-2.140625 12.359375 1.757812 17.886719 21.871094 40.828125 39.058594 66.847657 50.074219 3.9375 1.566406 6.207031 5.710937 5.40625 9.871094-.800782 4.164062-4.445313 7.167969-8.6875 7.160156zm0 0"/></g></svg>