<svg height="512pt" viewBox="-53 0 511 512" width="512pt" xmlns="http://www.w3.org/2000/svg"><path d="m39.875 340.921875c-3.691406-23.328125 1.132812-47.203125 13.59375-67.265625 17.65625-26.484375 8.828125-97.105469 8.828125-132.414062 0 0-8.828125-141.242188 141.242187-141.242188 132.414063 0 105.929688 141.242188 105.929688 141.242188l-135.355469 219.707031zm0 0" fill="#3b97d3"/><path d="m54.402344 340.921875c-3.375-23.167969.953125-46.800781 12.320312-67.265625 15.996094-26.484375 7.996094-97.105469 7.996094-132.414062 0 0-7.996094-141.242188 127.980469-141.242188 119.980469 0 95.984375 141.242188 95.984375 141.242188l-122.644532 219.707031zm0 0" fill="#2980ba"/><path d="m406.574219 411.453125c.011719 39.527344-27.890625 73.558594-66.648438 81.304687-5.347656 1.066407-10.789062 1.601563-16.242187 1.585938h-240.289063c-5.453125.015625-10.894531-.519531-16.242187-1.585938-40.457032-8.101562-68.808594-44.710937-66.523438-85.90625 2.285156-41.199218 34.511719-74.449218 75.617188-78.023437l70.972656-6.179687h112.640625l70.972656 6.179687c42.847657 3.746094 75.730469 39.613281 75.742188 82.625zm0 0" fill="#9fc9d3"/><path d="m353.609375 432.550781v26.484375c-.089844 12.574219-4.984375 24.640625-13.683594 33.722656-5.347656 1.066407-10.789062 1.601563-16.242187 1.585938h-240.289063c-5.453125.015625-10.894531-.519531-16.242187-1.585938-8.699219-9.082031-13.59375-21.148437-13.683594-33.722656v-26.484375c.03125-9.738281 7.917969-17.625 17.65625-17.652343h264.828125c9.738281.027343 17.625 7.914062 17.65625 17.652343zm0 0" fill="#84b5cb"/><path d="m335.953125 397.242188v61.792968c0 29.25-23.714844 52.964844-52.964844 52.964844h-158.898437c-29.25 0-52.964844-23.714844-52.964844-52.964844v-61.792968" fill="#9fc9d3"/><g fill="#84b5cb"><path d="m265.332031 512h-8.828125c-29.25 0-52.964844-23.714844-52.964844-52.964844 0 29.25-23.714843 52.964844-52.964843 52.964844zm0 0"/><path d="m291.726562 145.65625c6.089844-4.855469 26.570313-16.683594 26.570313 21.449219 1.902344 22.226562-14.210937 41.933593-36.367187 44.492187zm0 0"/><path d="m248.824219 274.539062c1.742187 16.417969 5.449219 32.570313 11.035156 48.109376 1.566406 4.371093 3.394531 8.644531 5.472656 12.800781-16.804687 15.875-38.707031 25.261719-61.792969 26.480469-23.085937-1.21875-44.988281-10.605469-61.792968-26.480469 2.078125-4.15625 3.90625-8.429688 5.472656-12.800781 5.613281-15.464844 9.289062-31.566407 10.945312-47.933594"/><path d="m300.640625 326.179688v.441406c-.835937 6.566406-2.042969 13.078125-3.617187 19.507812-.066407.070313-.101563.167969-.089844.265625-13.152344 24.011719-39.898438 50.847657-93.394532 50.847657-69.207031 0-93.574218-44.933594-101.871093-70.621094l45.550781-3.972656h112.640625zm0 0"/></g><path d="m354.050781 334.300781-.441406 1.148438c-3.109375 22.488281-9.039063 44.496093-17.65625 65.5-14.035156 36.644531-37.589844 68.886719-68.238281 93.394531-7.789063 5.964844-16.058594 11.277344-24.714844 15.890625-1.148438.617187-2.296875 1.234375-3.445312 1.765625h-106.636719c18.992187-3.25 37.421875-9.191406 54.730469-17.65625 40.710937-20.960938 73.015624-55.230469 91.542968-97.101562 10.59375-22.355469 17.820313-46.152344 21.449219-70.621094v-.441406l30.191406 2.648437c7.96875.667969 15.789063 2.515625 23.21875 5.472656zm0 0" fill="#3b97d3"/><path d="m115.441406 149.980469c.527344 34.429687 3.882813 62.234375 16.242188 88.363281 12.535156 26.660156 34.339844 52.964844 71.855468 52.964844 37.339844 0 59.144532-26.480469 71.679688-52.964844 12.445312-26.128906 15.890625-53.847656 16.417969-88.363281l.179687-4.324219c-38.023437-17.230469-69.125-46.773438-88.277344-83.863281 0 0-26.484374 61.792969-88.277343 88.277343zm0 0" fill="#9fc9d3"/></svg>