<svg height="512pt" viewBox="-53 0 512 512.0036" width="512pt" xmlns="http://www.w3.org/2000/svg"><path d="m365.554688 168.082031c-.019532 8.914063-6.6875 16.410157-15.535157 17.476563 5.710938 4.761718 7.832031 12.59375 5.300781 19.585937-2.527343 6.992188-9.164062 11.65625-16.601562 11.664063-1.277344-.011719-2.550781-.160156-3.796875-.441406.363281 1.414062.539063 2.867187.53125 4.324218-.027344 9.742188-7.917969 17.628906-17.65625 17.65625-1.988281.007813-3.964844-.351562-5.824219-1.058594-1.441406-.449218-2.808594-1.101562-4.0625-1.941406-.34375 1.054688-.816406 2.0625-1.410156 3-3.09375 5.472656-8.898438 8.851563-15.183594 8.828125-1.523437.023438-3.042968-.183593-4.503906-.617187-5.074219-1.320313-9.289062-4.855469-11.476562-9.621094h-6.972657l-130.738281.261719h-6.972656c-2.226563 4.613281-6.351563 8.027343-11.296875 9.359375-1.492188.425781-3.039063.636718-4.59375.617187-6.285157.023438-12.089844-3.355469-15.183594-8.828125-.59375-.9375-1.066406-1.945312-1.410156-3-1.253907.839844-2.621094 1.492188-4.0625 1.941406-1.859375.707032-3.835938 1.066407-5.824219 1.058594-9.738281-.027344-17.628906-7.914062-17.65625-17.65625-.007812-1.457031.167969-2.910156.53125-4.324218-1.246094.28125-2.519531.429687-3.796875.441406-7.4375-.007813-14.074219-4.671875-16.601563-11.664063-2.53125-6.992187-.410156-14.824219 5.300782-19.585937-7.988282-.941406-14.316406-7.183594-15.378906-15.15625s3.414062-15.652344 10.878906-18.652344c-8.347656-1.484375-14.460938-8.6875-14.566406-17.164062-.109376-8.476563 5.820312-15.832032 14.125-17.527344-6.675782-3.808594-10.125-11.492188-8.53125-19.011719 1.589843-7.515625 7.859374-13.144531 15.503906-13.917969-2.21875-3.085937-3.421875-6.789062-3.441406-10.589844 0-9.753906 7.902343-17.65625 17.65625-17.65625.675781-.015624 1.355468.011719 2.027343.085938-.714843-1.886719-1.074219-3.894531-1.058593-5.914062-.015626-4.6875 1.839843-9.1875 5.152343-12.5 3.316407-3.316407 7.816407-5.171876 12.503907-5.152344 3.660156.054687 7.222656 1.191406 10.238281 3.265625-.175781-.933594-.261719-1.878907-.265625-2.824219v-.441406c.253906-9.574219 8.082031-17.207032 17.65625-17.214844 1.402344-.003906 2.796875.175781 4.148437.527344 4.820313 1.15625 8.925781 4.300781 11.300781 8.652344-.074218-.378907-.101562-.761719-.089843-1.148438.023437-1.886719.320312-3.757812.882812-5.558594 2.425781-7.210937 9.167969-12.074218 16.773438-12.09375.882812 0 1.855469.085938 2.738281.175782 6.019531.980468 11.117188 4.980468 13.503906 10.59375.117188-1.503907.414063-2.984376.882813-4.414063h.089843c2.414063-7.113281 9.085938-11.9023438 16.59375-11.91796875.386719-.01562505.769532.01562495 1.148438.08984375 5.769531.324219 11.015625 3.457031 14.035156 8.382812.089844.089844.089844.265626.179688.355469.207031.304688.386718.628907.527344.96875.414062.816407.742187 1.675781.972656 2.5625v.085938c.238281.53125.386718 1.097656.441406 1.679687.25 1.160156.371094 2.34375.351562 3.53125-.019531-1.1875.101563-2.371094.351563-3.53125.054687-.582031.203125-1.148437.441406-1.679687l.089844-.085938c0-.089843 0-.089843.089844-.175781 0-.089844.085937-.265625.085937-.355469.082032-.277343.199219-.546875.355469-.792969v-.089843c.121094-.40625.300781-.792969.527344-1.148438.089843-.175781.175781-.261719.265625-.441406 0-.175781.089844-.261719.175781-.441406.050781 0 .089844-.039063.089844-.085938l.085937-.089843c0-.085938 0-.085938.089844-.175782 2.914062-4.960937 8.113281-8.140625 13.859375-8.472656.378906-.0742188.761719-.1054688 1.148437-.08984375 7.523438.03906255 14.207032 4.81249975 16.683594 11.91796875.46875 1.339844.765625 2.734375.882813 4.148437 2.476562-5.496093 7.554687-9.375 13.507812-10.328124.878907-.089844 1.851563-.175782 2.734375-.175782 7.605469.019532 14.351563 4.882813 16.773438 12.09375.5625 1.800782.863281 3.671875.882812 5.558594.015625.386719-.015625.769531-.089844 1.148438 2.375-4.351563 6.480469-7.496094 11.300782-8.652344 1.355468-.351563 2.75-.53125 4.148437-.527344 9.574219.007812 17.402344 7.640625 17.65625 17.214844v.441406c0 .945312-.089843 1.890625-.265625 2.824219 3.015625-2.074219 6.578125-3.210938 10.238282-3.265625 4.6875-.019532 9.1875 1.835937 12.503906 5.152344 3.3125 3.3125 5.167968 7.8125 5.152344 12.5.015624 2.019531-.34375 4.027343-1.058594 5.914062.671875-.074219 1.351562-.101562 2.03125-.085938 9.75 0 17.652344 7.902344 17.652344 17.65625-.015626 3.800782-1.21875 7.503907-3.441407 10.589844 7.644531.773438 13.914063 6.402344 15.507813 13.917969 1.589844 7.519531-1.859375 15.203125-8.535156 19.011719 8.304687 1.695312 14.234374 9.050781 14.125 17.527344-.105469 8.476562-6.21875 15.679687-14.566407 17.164062 6.671875 2.675781 11.042969 9.144531 11.035157 16.332031zm0 0" fill="#2980ba"/><path d="m349.929688 168.082031c.304687 8.5-5.667969 15.9375-14.035157 17.476563 3.726563 3.535156 5.804688 8.460937 5.738281 13.59375.425782 9.277344-6.707031 17.160156-15.976562 17.65625-1.164062-.015625-2.316406-.164063-3.445312-.441406.363281 1.414062.539062 2.867187.53125 4.324218.171874 7.222656-4.105469 13.8125-10.769532 16.597656-1.441406-.449218-2.808594-1.101562-4.0625-1.941406-.34375 1.054688-.816406 2.0625-1.410156 3-3.117188-.121094-6.128906-1.164062-8.652344-3-1.578125 5.339844-5.71875 9.546875-11.035156 11.210938-5.074219-1.320313-9.289062-4.855469-11.476562-9.621094h-6.972657l-130.738281.261719h-6.972656c-2.226563 4.613281-6.351563 8.027343-11.296875 9.359375-5.359375-1.632813-9.535157-5.84375-11.125-11.210938-2.523438 1.835938-5.53125 2.878906-8.652344 3-.59375-.9375-1.066406-1.945312-1.410156-3-1.253907.839844-2.621094 1.492188-4.0625 1.941406-6.664063-2.785156-10.941407-9.375-10.769531-16.597656-.007813-1.457031.171874-2.910156.53125-4.324218-1.128907.277343-2.28125.425781-3.441407.441406-9.273437-.496094-16.40625-8.378906-15.980469-17.65625-.066406-5.132813 2.015626-10.058594 5.738282-13.59375-8.363282-1.539063-14.339844-8.976563-14.035156-17.476563-.167969-6.929687 3.730468-13.320312 9.976562-16.332031-7.71875-2.1875-13.070312-9.195312-13.152344-17.214844-.082031-8.019531 5.128906-15.132812 12.796875-17.476562-5.15625-3.394532-8.222656-9.1875-8.121093-15.359375-.339844-8.65625 5.839843-16.199219 14.390624-17.570313-2.035156-3.15625-3.109374-6.835937-3.089843-10.589844-.460938-9.289062 6.691406-17.191406 15.976562-17.65625.589844-.015624 1.179688.011719 1.765625.085938-.644531-1.902344-.972656-3.902344-.96875-5.914062-.226562-7.285157 4.105469-13.9375 10.855469-16.683594 1.636719.53125 3.183594 1.304687 4.589844 2.296875-.175781-.933594-.261719-1.878907-.265625-2.824219v-.441406h.796875c3.367187.03125 6.625 1.179687 9.269531 3.265625-.175781-.933594-.265625-1.878907-.265625-2.824219-.199219-7.730469 4.671875-14.679688 12.003906-17.128906 4.820313 1.15625 8.925781 4.300781 11.300781 8.652344-.074218-.378907-.101562-.761719-.089843-1.148438.023437-1.886719.320312-3.757812.882812-5.558594 2.519531 1.660156 4.535157 3.980469 5.828125 6.707032-.074218-.378907-.101562-.761719-.089844-1.148438-.324218-8.414062 5.511719-15.824219 13.773438-17.476562 6.019531.980468 11.117188 4.980468 13.503906 10.59375.117188-1.503907.414063-2.984376.882813-4.414063h.089843c.984376 1.359375 1.785157 2.84375 2.382813 4.414063.222656-8.542969 6.84375-15.542969 15.359375-16.242188 5.769531.324219 11.015625 3.457031 14.035156 8.382812.089844.089844.089844.265626.179688.355469.207031.304688.386718.628907.527344.96875.414062.816407.742187 1.675781.972656 2.5625v.085938c.238281.53125.386718 1.097656.441406 1.679687.25 1.160156.371094 2.34375.351562 3.53125-.019531-1.1875.101563-2.371094.351563-3.53125.054687-.582031.203125-1.148437.441406-1.679687l.089844-.085938c0-.089843 0-.089843.089844-.175781 0-.089844.085937-.265625.085937-.355469.082032-.277343.199219-.546875.355469-.792969v-.089843c.121094-.40625.300781-.792969.527344-1.148438.089843-.175781.175781-.261719.265625-.441406 0-.175781.089844-.261719.175781-.441406.050781 0 .089844-.039063.089844-.085938l.085937-.089843c0-.085938 0-.085938.089844-.175782 2.914062-4.960937 8.113281-8.140625 13.859375-8.472656 8.441406.632812 15.058594 7.515625 15.359375 15.976562.597656-1.507812 1.433594-2.90625 2.472656-4.148437.46875 1.339844.765625 2.734375.882813 4.148437 2.476562-5.496093 7.554687-9.375 13.507812-10.328124 8.257813 1.652343 14.09375 9.0625 13.769531 17.476562.015626.386719-.015624.769531-.089843 1.148438 1.296875-2.726563 3.308593-5.046876 5.828125-6.707032.5625 1.800782.863281 3.671875.882812 5.558594.015625.386719-.015625.769531-.089844 1.148438 2.375-4.351563 6.480469-7.496094 11.300782-8.652344 7.332031 2.449218 12.203125 9.398437 12.003906 17.128906 0 .945312-.089844 1.890625-.265625 2.824219 2.644531-2.085938 5.90625-3.234375 9.269531-3.265625h.796875v.441406c0 .945312-.089843 1.890625-.265625 2.824219 1.40625-.992188 2.953125-1.765625 4.589844-2.296875 6.753906 2.746094 11.082031 9.398437 10.859375 16.683594 0 2.011718-.328125 4.011718-.972656 5.914062.585937-.074219 1.175781-.101562 1.765625-.085938 9.285156.464844 16.4375 8.367188 15.976562 17.65625.019532 3.753907-1.054687 7.433594-3.089844 10.589844 8.550782 1.371094 14.730469 8.914063 14.390626 17.570313.101562 6.171875-2.960938 11.964843-8.121094 15.359375 7.667968 2.34375 12.878906 9.457031 12.796875 17.476562-.078125 8.019532-5.433594 15.027344-13.148438 17.214844 6.242188 3.011719 10.144531 9.402344 9.972657 16.332031zm0 0" fill="#3b97d3"/><path d="m406.074219 411.457031c.011719 21.988281-8.714844 43.078125-24.265625 58.628907-15.546875 15.546874-36.636719 24.273437-58.625 24.261718l-31.867188 17.65625h-176.554687l-31.867188-17.65625c-44.390625-.011718-80.898437-34.984375-82.8124998-79.335937-1.9179692-44.347657 31.4374998-82.339844 75.6640628-86.179688l70.972656-6.179687h112.640625l70.972656 6.179687c42.847657 3.742188 75.730469 39.613281 75.742188 82.625zm0 0" fill="#9fc9d3"/><path d="m353.109375 450.210938v35.308593l-3.046875 4.367188c-8.652344 2.960937-17.734375 4.46875-26.878906 4.460937l-31.867188 17.65625h-176.554687l-31.867188-17.65625c-9.144531.007813-18.226562-1.5-26.878906-4.460937l-3.046875-4.367188v-35.308593c0-9.75 7.90625-17.65625 17.65625-17.65625h264.828125c9.75 0 17.65625 7.90625 17.65625 17.65625zm0 0" fill="#84b5cb"/><path d="m335.453125 414.898438v70.621093c0 14.628907-11.855469 26.484375-26.484375 26.484375h-211.859375c-14.628906 0-26.484375-11.855468-26.484375-26.484375v-70.621093" fill="#9fc9d3"/><path d="m264.832031 335.453125c-2.078125-4.15625-3.90625-8.429687-5.472656-12.800781-5.585937-15.539063-9.292969-31.691406-11.035156-48.109375l-90.660157.175781c-1.65625 16.367188-5.332031 32.46875-10.945312 47.933594-1.566406 4.371094-3.394531 8.644531-5.472656 12.800781zm0 0" fill="#84b5cb"/><path d="m299.171875 326.09375c-3.972656 23.304688-21.890625 62.324219-96.132813 62.324219-74.238281 0-92.160156-39.019531-96.132812-62.324219l39.8125-3.441406h112.640625zm0 0" fill="#84b5cb"/><path d="m291.316406 132.417969s-26.484375-26.484375-35.3125-26.484375-26.480468 8.828125-52.964844 8.828125c-26.484374 0-44.136718-8.828125-52.964843-8.828125s-35.3125 26.484375-35.3125 26.484375l.089843-.089844c-.089843 1.855469-.089843 3.707031-.089843 5.5625 0 3.355469 0 6.621094.089843 9.796875-.296874 21.378906 1.957032 42.714844 6.710938 63.558594 2.316406 9.328125 5.539062 18.402344 9.621094 27.101562 12.535156 26.660156 34.339844 52.964844 71.855468 52.964844 37.339844 0 59.144532-26.480469 71.679688-52.964844 13.859375-29.128906 16.597656-60.203125 16.597656-100.457031 0-1.855469 0-3.707031-.089844-5.5625zm0 0" fill="#9fc9d3"/></svg>