<svg height="512pt" viewBox="-53 0 512 512.00002" width="512pt" xmlns="http://www.w3.org/2000/svg"><path d="m238.347656 52.964844 26.484375 114.757812 44.136719-26.480468s17.65625-52.964844 8.828125-70.621094c-6.753906-10.28125-15.824219-18.839844-26.484375-24.984375zm0 0" fill="#2980ba"/><path d="m291.226562 147.683594c6.089844-4.851563 26.570313-18.710938 26.570313 19.421875 0 36.28125-23.128906 43.167969-31.957031 44.492187h-165.605469c-8.828125-1.324218-31.957031-8.210937-31.957031-44.492187 0-38.132813 20.480468-24.273438 26.574218-19.421875zm0 0" fill="#84b5cb"/><path d="m406.070312 411.453125c.015626 21.988281-8.714843 43.078125-24.261718 58.628906-15.546875 15.546875-36.640625 24.277344-58.628906 24.261719l-31.867188 17.65625h-176.550781l-31.867188-17.65625c-44.394531-.011719-80.898437-34.984375-82.816406-79.335938-1.914063-44.347656 31.441406-82.339843 75.664063-86.179687l70.976562-6.179687h112.640625l70.972656 6.179687c42.847657 3.746094 75.726563 39.613281 75.738281 82.625zm0 0" fill="#9fc9d3"/><path d="m353.105469 450.207031v35.308594l-3.046875 4.367187c-8.652344 2.960938-17.734375 4.46875-26.878906 4.460938l-31.867188 17.65625h-176.550781l-31.867188-17.65625c-9.144531.007812-18.226562-1.5-26.878906-4.460938l-3.046875-4.367187v-35.308594c0-9.75 7.90625-17.65625 17.65625-17.65625h264.828125c9.75 0 17.652344 7.90625 17.652344 17.65625zm0 0" fill="#84b5cb"/><path d="m335.453125 414.898438v70.617187c.007813 7.027344-2.78125 13.769531-7.746094 18.738281-4.96875 4.96875-11.710937 7.753906-18.738281 7.746094h-211.863281c-7.027344.007812-13.765625-2.777344-18.734375-7.746094s-7.757813-11.710937-7.746094-18.738281v-70.617187zm0 0" fill="#9fc9d3"/><path d="m248.324219 274.539062c1.742187 16.417969 5.445312 32.570313 11.035156 48.109376 1.566406 4.371093 3.394531 8.644531 5.472656 12.800781l-61.792969 52.964843-61.792968-52.964843c2.078125-4.15625 3.90625-8.429688 5.472656-12.800781 5.609375-15.464844 9.285156-31.566407 10.945312-47.933594" fill="#84b5cb"/><path d="m211.863281 388.414062v123.585938h-17.652343v-123.585938c0-2.105468.75-4.140624 2.117187-5.738281l6.710937 5.738281 6.707032-5.738281c1.367187 1.597657 2.117187 3.632813 2.117187 5.738281zm0 0" fill="#2980ba"/><path d="m203.039062 388.414062-35.3125 26.484376-88.273437-88.277344 35.308594-17.65625 26.484375 26.484375 55.082031 47.226562zm0 0" fill="#3b97d3"/><path d="m326.625 326.621094-88.277344 88.277344-35.308594-26.484376 6.707032-5.738281 55.085937-47.226562 26.480469-26.484375zm0 0" fill="#3b97d3"/><path d="m271.453125 68.148438c12.445313 14.300781 19.859375 36.371093 19.859375 69.738281 0 3.355469 0 6.621093-.085938 9.796875.277344 21.382812-2.003906 42.722656-6.796874 63.558594-2.351563 9.328124-5.601563 18.40625-9.710938 27.101562-12.535156 26.484375-34.339844 52.964844-71.679688 52.964844-37.519531 0-59.324218-26.304688-71.859374-52.964844-4.078126-8.699219-7.300782-17.773438-9.621094-27.101562-4.753906-20.84375-7.003906-42.179688-6.707032-63.558594-.089843-2.117188-.089843-85.359375-.089843-85.890625zm0 0" fill="#9fc9d3"/><path d="m220.691406 158.898438c-2.339844 0-4.585937-.929688-6.238281-2.589844-3.085937-3.1875-7.066406-5.363282-11.414063-6.238282-4.363281.878907-8.351562 3.066407-11.441406 6.265626-3.46875 3.351562-8.984375 3.300781-12.390625-.117188-3.402343-3.417969-3.433593-8.9375-.066406-12.390625 6.382813-6.488281 14.839844-10.527344 23.898437-11.414063 9.054688.886719 17.511719 4.925782 23.894532 11.414063 2.523437 2.523437 3.277344 6.320313 1.914062 9.617187-1.367187 3.300782-4.585937 5.449219-8.15625 5.453126zm0 0" fill="#2980ba"/><g fill="#3b97d3"><path d="m114.761719 141.242188h61.792969c4.875 0 8.828124 3.953124 8.828124 8.828124v17.652344c0 9.753906-7.90625 17.65625-17.65625 17.65625h-35.308593c-9.75 0-17.65625-7.902344-17.65625-17.65625zm0 0"/><path d="m229.519531 141.242188h61.792969v26.480468c0 9.753906-7.902344 17.65625-17.652344 17.65625h-35.3125c-9.75 0-17.65625-7.902344-17.65625-17.65625v-17.652344c0-4.875 3.953125-8.828124 8.828125-8.828124zm0 0"/><path d="m256.003906 70.621094c-52.523437 0-139.742187-17.390625-141.152344 77.0625-4.546874-4.375-10.75-6.59375-17.039062-6.089844l-.707031-.351562c-4.992188-20.253907-7.949219-40.953126-8.828125-61.792969 0-26.484375 8.828125-61.792969 61.792968-61.792969 52.96875 0 123.589844 8.828125 141.242188-17.65625 0 0 17.65625 70.621094-35.308594 70.621094zm0 0"/></g></svg>