<svg height="512pt" viewBox="-53 0 512 512.00125" width="512pt" xmlns="http://www.w3.org/2000/svg"><path d="m247.148438 370.757812v141.242188h-150.070313c-.882813 0-1.851563-.085938-2.734375-.175781-4.027344-.363281-7.902344-1.695313-11.300781-3.882813-.59375-.332031-1.152344-.714844-1.675781-1.148437-1.058594-.785157-2.0625-1.640625-3.003907-2.558594-.09375-.007813-.167969-.082031-.175781-.179687-.925781-.964844-1.78125-2-2.558594-3.089844-.789062-1.125-1.5-2.304688-2.121094-3.527344-.617187-1.257812-1.148437-2.554688-1.585937-3.886719-2.289063-.273437-4.558594-.6875-6.800781-1.234375-.386719-.007812-.773438-.070312-1.144532-.175781-2.207031-.53125-4.328124-1.148437-6.445312-1.855469-.152344.023438-.308594-.007812-.441406-.089844-.402344-.089843-.789063-.238281-1.148438-.441406-37.023437-12.722656-60.09375-49.617187-55.316406-88.472656 4.773438-38.859375 36.089844-69.070312 75.089844-72.453125l70.976562-6.179687h18.273438l38.046875 30.457031h26.480469c9.738281.027343 17.628906 7.914062 17.65625 17.652343zm0 0" fill="#3b97d3"/><path d="m406.042969 411.453125c.027343 41.546875-30.753907 76.671875-71.945313 82.097656-3.425781 11.007813-13.628906 18.488281-25.15625 18.449219h-61.792968v-141.242188c-.027344-9.738281-7.917969-17.625-17.65625-17.652343h-26.480469l-38.046875-30.457031h94.363281l70.976563 6.179687c42.847656 3.746094 75.726562 39.617187 75.738281 82.625zm0 0" fill="#2980ba"/><path d="m248.296875 274.539062c1.742187 16.421876 5.445313 32.570313 11.03125 48.109376 1.570313 4.375 3.394531 8.648437 5.476563 12.800781-16.808594 15.875-38.707032 25.261719-61.792969 26.484375-23.089844-1.222656-44.988281-10.609375-61.796875-26.484375 2.082031-4.152344 3.90625-8.425781 5.476562-12.800781 5.609375-15.464844 9.285156-31.566407 10.945313-47.933594zm0 0" fill="#84b5cb"/><path d="m291.199219 147.6875c6.089843-4.855469 26.570312-18.714844 26.570312 19.417969 0 36.285156-23.128906 43.167969-31.957031 44.492187h-165.605469c-8.828125-1.324218-31.957031-8.207031-31.957031-44.492187 0-16.859375 3.972656-23.566407 9.003906-25.332031 6.269532-2.296876 14.214844 3.175781 17.566406 5.914062zm0 0" fill="#84b5cb"/><path d="m114.820312 44.140625c-.085937 1.675781-.085937 92.070313-.085937 93.746094 0 3.355469 0 6.621093.085937 9.800781-.292968 21.375 1.957032 42.714844 6.710938 63.558594 2.316406 9.324218 5.539062 18.402344 9.621094 27.101562 12.535156 26.65625 34.339844 52.964844 71.859375 52.964844 37.339843 0 59.144531-26.484375 71.679687-52.964844 4.109375-8.699218 7.359375-17.773437 9.707032-27.101562 4.796874-20.839844 7.078124-42.179688 6.800781-63.558594.085937-3.179688.085937-6.445312.085937-9.800781 0-1.851563 0-39.015625-.085937-40.78125zm0 0" fill="#9fc9d3"/><path d="m313.441406 89.6875c-4.855468-71.941406-64.351562-87.65625-102.398437-89.421875-1.589844-.089844-3.089844-.1757812-4.589844-.1757812-1.148437-.0898438-2.296875-.0898438-3.441406-.0898438-9.113281-.03125-18.210938.734375-27.191407 2.296875-36.105468 6.003906-78.917968 26.570313-83.242187 86.773437-.894531 17.890626.140625 35.828126 3.089844 53.496094.492187-.335937 1.023437-.601562 1.585937-.792968 6.269532-2.296876 14.214844 3.175781 17.566406 5.914062h.972657c25.421875-6.710938 44.578125-26.042969 64.175781-41.753906 4.191406-3.34375 8.0625-7.066406 11.566406-11.125 3.449219 4.078125 7.292969 7.804687 11.476563 11.125 31.511719 25.246094 54.90625 37.25 79.179687 41.753906h9.007813c3.707031-2.914062 12.621093-9.179688 19.152343-5.210938 2.898438-17.433593 3.9375-35.132812 3.089844-52.789062zm0 0" fill="#3b97d3"/><path d="m171.761719 47.230469c.261719 2.207031.527343 4.410156.96875 6.707031-20.53125 22.542969-49.664063 35.3125-80.152344 35.132812 4.324219-60.203124 47.136719-80.769531 83.242187-86.773437-4.167968 14.585937-5.546874 29.832031-4.058593 44.933594zm0 0" fill="#2980ba"/><path d="m313.441406 89.6875c-21.183594.179688-53.230468-2.644531-75.121094-19.066406-21.1875-15.890625-26.484374-47.578125-27.277343-70.355469 38.046875 1.765625 97.542969 17.480469 102.398437 89.421875zm0 0" fill="#2980ba"/><path d="m191.535156 94.808594c-3.503906 4.058594-7.375 7.78125-11.566406 11.125-19.597656 15.710937-38.753906 35.042968-64.175781 41.753906h-.972657c-3.351562-2.738281-11.296874-8.210938-17.566406-5.914062-.5625.191406-1.09375.457031-1.585937.792968-2.949219-17.667968-3.984375-35.605468-3.089844-53.496094 30.488281.179688 59.621094-12.589843 80.152344-35.132812 2.320312 15.113281 8.835937 29.273438 18.804687 40.871094zm0 0" fill="#285680"/><path d="m310.351562 142.476562c-6.53125-3.96875-15.445312 2.296876-19.152343 5.210938h-9.007813c-24.273437-4.503906-47.667968-16.507812-79.179687-41.753906-4.183594-3.320313-8.027344-7.046875-11.476563-11.125-9.96875-11.597656-16.484375-25.757813-18.804687-40.871094-.441407-2.296875-.707031-4.5-.96875-6.707031-1.488281-15.101563-.109375-30.347657 4.058593-44.933594 8.980469-1.5625 18.078126-2.328125 27.191407-2.296875 1.144531 0 2.292969 0 3.441406.0898438 1.5 0 3 .0859372 4.589844.1757812.792969 22.777344 6.089843 54.464844 27.277343 70.355469 21.890626 16.421875 53.9375 19.246094 75.121094 19.066406.847656 17.65625-.191406 35.355469-3.089844 52.789062zm0 0" fill="#3b97d3"/><path d="m353.078125 450.207031v35.3125c-1.058594 1.5-2.03125 2.910157-3.089844 4.324219-8.632812 2.988281-17.703125 4.507812-26.835937 4.503906l-31.867188 17.652344h-44.136718v-79.445312h88.273437c9.742187.027343 17.628906 7.914062 17.65625 17.652343zm0 0" fill="#285680"/><path d="m247.148438 432.554688v79.445312h-132.414063l-31.867187-17.652344c-3.664063.003906-7.324219-.261718-10.945313-.796875-2.289063-.273437-4.558594-.6875-6.800781-1.234375-.386719-.007812-.773438-.070312-1.144532-.175781-2.207031-.53125-4.328124-1.148437-6.445312-1.855469-.152344.023438-.308594-.007812-.441406-.089844-.351563-.085937-.707032-.261718-1.058594-.351562 0-.046875-.039062-.089844-.089844-.089844-.96875-1.410156-1.941406-2.734375-3-4.234375v-35.3125c.027344-9.738281 7.914063-17.625 17.65625-17.652343zm0 0" fill="#2980ba"/><path d="m335.421875 414.898438v70.621093c.011719 7.023438-2.777344 13.765625-7.746094 18.734375s-11.707031 7.757813-18.734375 7.746094h-61.792968v-97.101562zm0 0" fill="#2980ba"/><path d="m247.148438 414.898438v97.101562h-150.070313c-.882813 0-1.851563-.085938-2.734375-.175781-4.027344-.363281-7.902344-1.695313-11.300781-3.882813-.59375-.332031-1.152344-.714844-1.675781-1.148437-1.058594-.785157-2.0625-1.640625-3.003907-2.558594-.09375-.007813-.167969-.082031-.175781-.179687-.925781-.964844-1.78125-2-2.558594-3.089844-.789062-1.125-1.5-2.304688-2.121094-3.527344-.617187-1.257812-1.148437-2.554688-1.585937-3.886719-.898437-2.582031-1.347656-5.296875-1.324219-8.03125l-.003906-70.621093zm0 0" fill="#3b97d3"/></svg>